<svg id="Layer_1" data-name="Layer 1" xmlns="http://www.w3.org/2000/svg" viewBox="0 0 375 90"><title>Artboard 1</title><path d="M47.58,5a40,40,0,1,0,40,40A40,40,0,0,0,47.58,5ZM75.46,52.12l-3.64-3.64c-1.66,11.85-11.67,21-25,21-14.63,0-25.13-10.9-25.13-24.38V45c0-13.48,10.64-24.52,25.27-24.52,4.86,0,9.27.81,13,2.91l-.14.14-7.6,7.6a14.09,14.09,0,0,0-5.38-1c-8.4,0-14.22,6.64-14.22,14.77V45c0,8.13,6,14.9,14.36,14.9a14,14,0,0,0,14-11.84l-4.07,4.06-6.36-6.36,9.31-9.31,6.36-6.37,6.37,6.37,9.31,9.31Z" fill="#fff"/><path d="M121.5,39.94H134V50.31a19,19,0,0,1-11.68,4.15c-9.44,0-15.79-6.69-15.79-16.65v-.1c0-9.25,6.69-16.49,15.21-16.49a16.64,16.64,0,0,1,11.86,4.43l.19.17L136,23.34l-.2-.16a19.93,19.93,0,0,0-13.85-5c-11.74,0-18.75,10-18.75,19.6v.11c0,11.48,7.84,19.5,19.07,19.5a22.71,22.71,0,0,0,14.87-5.68l.09-.07V36.87H121.5Z" fill="#fff"/><path d="M147.67,35.92V29h-3.12V56.78h3.12V45.36c0-9.25,5.81-13.4,11.57-13.4h.51V28.59h-.24A13,13,0,0,0,147.67,35.92Z" fill="#fff"/><path d="M173.12,28.58A22,22,0,0,0,163.34,31l-.21.1,1.15,2.77.24-.12A18.09,18.09,0,0,1,173,31.54c5.64,0,8.74,2.88,8.74,8.09v.85a33,33,0,0,0-8.79-1.1c-7.5,0-12.17,3.5-12.17,9.13v.11c0,4.37,3.7,8.8,10.78,8.8a12.67,12.67,0,0,0,10.18-4.7v4.06h3.07V39.52C184.77,32.57,180.52,28.58,173.12,28.58Zm8.63,14.83v2.91c0,4.64-4.33,8.14-10.06,8.14-3.82,0-7.67-2.06-7.67-6v-.1c0-3.83,3.26-6.11,8.73-6.11A35.7,35.7,0,0,1,181.75,43.41Z" fill="#fff"/><path d="M213.47,50c-2.66,3-5.67,4.46-9,4.46-6.15,0-11-5.08-11-11.57v-.1c0-6.43,4.73-11.46,10.77-11.46,4,0,6.67,2.12,8.91,4.42l.18.18,2.22-2.28-.16-.18c-2.29-2.37-5.62-5.1-11.1-5.1A14.36,14.36,0,0,0,190.2,42.89V43a14.31,14.31,0,0,0,14.15,14.42c4.48,0,8-1.69,11.31-5.48l.17-.19-2.19-1.93Z" fill="#fff"/><path d="M231.5,28.37c-7.38,0-13.17,6.36-13.17,14.47V43c0,8.25,5.85,14.47,13.6,14.47a14.54,14.54,0,0,0,11.47-5.21l.18-.19-2.2-1.94-.17.18a11.89,11.89,0,0,1-9.16,4.2c-5.64,0-9.89-4.2-10.43-10.25h22.56l0-.22a5.83,5.83,0,0,0,.06-1v-.11C244.27,34.34,239,28.37,231.5,28.37Zm9.42,13h-19.3c.58-5.86,4.66-10.09,9.78-10.09C237.79,31.27,240.51,36.65,240.92,41.36Z" fill="#fff"/><path d="M264.23,18.85H250.4V56.78h3.28v-14h9.85c7.39,0,14.85-3.76,14.85-12.17v-.11C278.38,23.44,272.83,18.85,264.23,18.85ZM275.11,30.7v.11c0,5.35-4.59,9-11.41,9h-10V21.91H264C271,21.91,275.11,25.2,275.11,30.7Z" fill="#fff"/><path d="M293,28.37a14.27,14.27,0,0,0-14.31,14.52V43a14.26,14.26,0,1,0,28.52-.11v-.1A14.16,14.16,0,0,0,293,28.37ZM303.9,42.89V43c0,6.43-4.77,11.46-10.87,11.46s-11-5.08-11-11.57v-.1c0-6.43,4.77-11.46,10.86-11.46S303.9,36.41,303.9,42.89Z" fill="#fff"/><rect x="311.22" y="18.31" width="3.76" height="4.09" fill="#fff"/><rect x="311.54" y="29.01" width="3.12" height="27.77" fill="#fff"/><path d="M335.08,28.37a10.8,10.8,0,0,0-9.59,5.07V29h-3.13V56.78h3.13v-16a9.15,9.15,0,0,1,9.22-9.48c5.26,0,8.4,3.39,8.4,9.06V56.78h3.13V39.85C346.24,32.88,341.86,28.37,335.08,28.37Z" fill="#fff"/><path d="M367.67,31.91V29H358.1V20.3H355V29h-4v2.9h4V49.52c0,4.85,2.95,7.74,7.9,7.74a10.36,10.36,0,0,0,4.54-1l.15-.07v-3l-.35.15a9,9,0,0,1-3.91,1c-3.46,0-5.21-1.7-5.21-5.05V31.91Z" fill="#fff"/><path d="M295,79c-2.1,2.09-4,2.94-6.44,2.94-4.43,0-7.89-3.7-7.89-8.47s3.38-8.36,7.86-8.36a8.64,8.64,0,0,1,6.32,2.76l.18.18,1.36-1.41-.19-.17a10.45,10.45,0,0,0-7.64-3.14,10,10,0,0,0-9.88,10.25,9.76,9.76,0,0,0,9.82,10.14,10.44,10.44,0,0,0,7.82-3.42l.18-.18-1.32-1.29Z" fill="#fff"/><path d="M305.4,68.51a5.72,5.72,0,0,0-4.81,2.35V62.8h-1.85V83.37h1.85V75a4.53,4.53,0,0,1,4.62-4.76c2.63,0,4.2,1.69,4.2,4.53v8.59h1.84V74.54C311.25,70.88,309,68.51,305.4,68.51Z" fill="#fff"/><path d="M325.16,77.21A4.58,4.58,0,0,1,320.55,82c-2.64,0-4.21-1.7-4.21-4.54V68.84H314.5v8.84c0,3.65,2.29,6,5.85,6a5.64,5.64,0,0,0,4.81-2.33v2H327V68.84h-1.85Z" fill="#fff"/><path d="M332.64,72.06V68.84H330.8V83.37h1.84v-6c0-4.67,2.93-6.76,5.84-6.76h.38v-2h-.24A6.81,6.81,0,0,0,332.64,72.06Z" fill="#fff"/><path d="M351.31,79.68a6,6,0,0,1-4.51,2.25,5.63,5.63,0,0,1-5.52-5.88,5.53,5.53,0,0,1,5.41-5.77,6.11,6.11,0,0,1,4.49,2.22l.18.19,1.31-1.34-.17-.18a7.61,7.61,0,0,0-5.78-2.66,7.59,7.59,0,0,0,0,15.18,7.42,7.42,0,0,0,5.91-2.85l.16-.19-1.31-1.16Z" fill="#fff"/><path d="M361.82,68.51A5.73,5.73,0,0,0,357,70.86V62.8h-1.85V83.37H357V75a4.53,4.53,0,0,1,4.61-4.76c2.64,0,4.21,1.69,4.21,4.53v8.59h1.84V74.54C367.67,70.88,365.38,68.51,361.82,68.51Z" fill="#fff"/></svg>